<svg xmlns="http://www.w3.org/2000/svg" fill="none" viewBox="0 0 69 52" height="52" width="69">
<path fill="black" d="M53.7693 0C62.0011 0 68.6896 6.65514 68.8225 14.9157C69.2105 18.6641 69.1542 24.1934 66.6395 30.5773C64.0693 37.1012 59.0499 44.2182 49.8979 51.1329C47.9975 52.569 45.3013 52.1812 43.8757 50.2663C42.4502 48.3518 42.8356 45.6357 44.736 44.1996C51.4637 39.117 55.3217 34.1749 57.5241 29.858C56.3235 30.1683 55.0658 30.3334 53.7693 30.3334C45.4544 30.3334 38.7139 23.543 38.7139 15.1667C38.7139 6.79034 45.4544 0 53.7693 0ZM15.0554 0C23.2871 0 29.9757 6.65514 30.1086 14.9157C30.4966 18.6641 30.4403 24.1934 27.9256 30.5773C25.3555 37.1012 20.3359 44.2182 11.184 51.1329C9.28342 52.569 6.58721 52.1812 5.16181 50.2663C3.73636 48.3518 4.12152 45.6357 6.02207 44.1996C12.7496 39.117 16.608 34.1749 18.8101 29.858C17.6099 30.1683 16.3518 30.3334 15.0554 30.3334C6.74052 30.3334 0 23.543 0 15.1667C0 6.79034 6.74052 0 15.0554 0Z"></path>
</svg>
